<?xml version="1.0" standalone="no"?><!DOCTYPE svg PUBLIC "-//W3C//DTD SVG 1.1//EN" "http://www.w3.org/Graphics/SVG/1.1/DTD/svg11.dtd"><svg t="1772466711416" class="icon" viewBox="0 0 1024 1024" version="1.1" xmlns="http://www.w3.org/2000/svg" p-id="16311" xmlns:xlink="http://www.w3.org/1999/xlink" width="200" height="200"><path fill="#9e8ef1" d="M901.023723 390.540146v-5.605839c-39.240876-39.240876-95.29927-28.029197-134.540146 11.211678L474.979927 693.255474c-5.605839 0-5.605839 5.605839-5.605839 11.211679l-28.029197 117.722628c-5.605839 11.211679 0 16.817518 5.605839 22.423358s28.029197 0 28.029197 0l123.328467-28.029197c5.605839 0 11.211679-5.605839 16.817518-5.60584l285.897811-291.503649c39.240876-39.240876 39.240876-89.693431 0-128.934307zM609.520073 861.430657l-179.386861 39.240876c-11.211679 0-22.423358-5.605839-28.029197-16.817518s-11.211679-22.423358-5.60584-28.029197l39.240876-179.386862c0-5.605839 5.605839-16.817518 11.211679-16.817518l353.167883-358.773723 11.211679-11.211679v-5.605839c0-61.664234-50.452555-106.510949-106.510949-106.510949H189.082117c-61.664234 0-106.510949 50.452555-106.510949 106.510949v633.459854c0 61.664234 50.452555 106.510949 106.510949 106.510949h504.525547c61.664234 0 106.510949-50.452555 106.510949-106.510949V682.043796L631.943431 850.218978c0 5.605839-11.211679 11.211679-22.423358 11.211679zM323.622263 474.627737l-72.875913 67.270073c-11.211679 11.211679-28.029197 11.211679-39.240876 0s-11.211679-28.029197 0-39.240876l89.693431-89.69343c11.211679-11.211679 28.029197-11.211679 39.240876 0l67.270073 72.875912 162.569343-162.569343c11.211679-11.211679 28.029197-11.211679 33.635037 5.605839 11.211679 11.211679 11.211679 28.029197 5.605839 33.635037L424.527372 541.89781c-5.605839 5.605839-11.211679 5.605839-16.817518 5.60584s-16.817518 0-22.423358-5.60584l-61.664233-67.270073z" p-id="16312"></path></svg>
