<?xml version="1.0" standalone="no"?><!DOCTYPE svg PUBLIC "-//W3C//DTD SVG 1.1//EN" "http://www.w3.org/Graphics/SVG/1.1/DTD/svg11.dtd"><svg t="1772467379518" class="icon" viewBox="0 0 1024 1024" version="1.1" xmlns="http://www.w3.org/2000/svg" p-id="27994" xmlns:xlink="http://www.w3.org/1999/xlink" width="200" height="200"><path fill="#ffffff" d="M64 928c0 53 43 96 96 96h704c53 0 96-43 96-96V384H64v544z m640-392c0-13.2 10.8-24 24-24h80c13.2 0 24 10.8 24 24v80c0 13.2-10.8 24-24 24h-80c-13.2 0-24-10.8-24-24v-80z m0 256c0-13.2 10.8-24 24-24h80c13.2 0 24 10.8 24 24v80c0 13.2-10.8 24-24 24h-80c-13.2 0-24-10.8-24-24v-80zM448 536c0-13.2 10.8-24 24-24h80c13.2 0 24 10.8 24 24v80c0 13.2-10.8 24-24 24h-80c-13.2 0-24-10.8-24-24v-80z m0 256c0-13.2 10.8-24 24-24h80c13.2 0 24 10.8 24 24v80c0 13.2-10.8 24-24 24h-80c-13.2 0-24-10.8-24-24v-80zM192 536c0-13.2 10.8-24 24-24h80c13.2 0 24 10.8 24 24v80c0 13.2-10.8 24-24 24H216c-13.2 0-24-10.8-24-24v-80z m0 256c0-13.2 10.8-24 24-24h80c13.2 0 24 10.8 24 24v80c0 13.2-10.8 24-24 24H216c-13.2 0-24-10.8-24-24v-80zM864 128h-96V32c0-17.6-14.4-32-32-32h-64c-17.6 0-32 14.4-32 32v96H384V32c0-17.6-14.4-32-32-32h-64c-17.6 0-32 14.4-32 32v96H160C107 128 64 171 64 224v96h896v-96c0-53-43-96-96-96z" p-id="27995"></path></svg>
