<?xml version="1.0" standalone="no"?><!DOCTYPE svg PUBLIC "-//W3C//DTD SVG 1.1//EN" "http://www.w3.org/Graphics/SVG/1.1/DTD/svg11.dtd"><svg t="1772467263497" class="icon" viewBox="0 0 1126 1024" version="1.1" xmlns="http://www.w3.org/2000/svg" p-id="25670" xmlns:xlink="http://www.w3.org/1999/xlink" width="219.921875" height="200"><path fill="#9e8ef1" d="M459.304 469.671a175.253 175.253 0 0 1-49.714 27.443 197.73 197.73 0 0 1-78.795 15.36A193.838 193.838 0 0 1 252 497.113a241.197 241.197 0 0 1-67.94-43.98 247.034 247.034 0 0 1-45.055-65.688 199.675 199.675 0 0 1-15.36-78.283 232.596 232.596 0 0 1 15.36-78.283 212.321 212.321 0 0 1 45.054-65.688 185.595 185.595 0 0 1 68.146-43.98A197.986 197.986 0 0 1 331 105.853a194.555 194.555 0 0 1 78.59 15.258c3.584 1.792 6.912 2.867 10.24 4.557-3.38 6.297-6.195 13.158-9.011 19.455A356.087 356.087 0 0 0 386.602 268a310.572 310.572 0 0 0 24.217 122.877 396.841 396.841 0 0 0 48.434 78.846z m-23.09 60.568a454.952 454.952 0 0 0-178.428 360.644 68.094 68.094 0 0 0 2.816 18.278C120.982 900.56 0 866.82 0 807.378a333.662 333.662 0 0 1 189.128-299.41 259.168 259.168 0 0 0 144.073 42.29 267.257 267.257 0 0 0 103.012-20.019zM309.598 897.13a406.21 406.21 0 0 1 230.753-364.535 319.275 319.275 0 0 0 175.611 52.018 326.75 326.75 0 0 0 177.916-52.12 402.627 402.627 0 0 1 232.493 364.638c-0.563 167.983-816.773 170.287-816.773 0z m601.739-437.134a241.965 241.965 0 0 1-90.059 58.264 262.752 262.752 0 0 1-104.138 20.48 256.915 256.915 0 0 1-104.138-20.48 317.432 317.432 0 0 1-90.059-58.264 308.063 308.063 0 0 1-59.135-87.038 264.851 264.851 0 0 1-20.48-103.422 312.62 312.62 0 0 1 20.48-103.421 298.54 298.54 0 0 1 59.698-87.243 243.808 243.808 0 0 1 90.059-58.366A262.138 262.138 0 0 1 717.653 0.025a256.864 256.864 0 0 1 104.138 20.48 317.432 317.432 0 0 1 90.11 58.366 306.732 306.732 0 0 1 59.083 87.038 264.288 264.288 0 0 1 20.48 103.421 312.67 312.67 0 0 1-20.48 103.422 285.382 285.382 0 0 1-59.646 87.243z m0 0" p-id="25671"></path></svg>
