<?xml version="1.0" standalone="no"?><!DOCTYPE svg PUBLIC "-//W3C//DTD SVG 1.1//EN" "http://www.w3.org/Graphics/SVG/1.1/DTD/svg11.dtd"><svg t="1772470499698" class="icon" viewBox="0 0 1024 1024" version="1.1" xmlns="http://www.w3.org/2000/svg" p-id="36882" xmlns:xlink="http://www.w3.org/1999/xlink" width="200" height="200"><path d="M451.812352 90.310656a155.648 155.648 0 0 1 118.501376 0.515072l243.775488 101.597184c39.68 16.5376 65.527808 55.31136 65.527808 98.299904v316.865536a106.496 106.496 0 0 1-36.76672 80.492544L575.422464 919.74656c-40.147968 34.778112-99.782656 34.65728-139.787264-0.283648l-265.05216-231.506944A106.494976 106.494976 0 0 1 134.144 607.748096V291.135488c0-43.32544 26.249216-82.333696 66.383872-98.65216l251.28448-102.172672z m89.09312 49.153024a78.631936 78.631936 0 0 0-59.834368-0.260096L208.842752 252.420096A26.18368 26.18368 0 0 0 192.512 276.67456V613.9904a26.176512 26.176512 0 0 0 8.96512 19.720192L488.380416 884.71552c9.84064 8.590336 24.510464 8.620032 34.38592 0.069632l289.437696-251.177984A26.176512 26.176512 0 0 0 821.248 613.818368V276.235264c0-10.568704-6.358016-20.102144-16.118784-24.167424l-264.22272-112.60416z" fill="#1f2937" stroke="#1f2937" stroke-width="12" p-id="36883"></path><path d="M512 368.64c32.801792 0 59.392 26.401792 59.392 58.971136 0 22.243328-12.403712 41.611264-30.717952 51.654656L540.672 626.688c0 15.835136-12.836864 28.672-28.672 28.672s-28.672-12.836864-28.672-28.672V479.266816c-18.315264-10.044416-30.72-29.411328-30.72-51.65568C452.608 395.041792 479.198208 368.64 512 368.64z" fill="#1f2937" stroke="#1f2937" stroke-width="12" p-id="36884"></path></svg>
