<svg xmlns="http://www.w3.org/2000/svg" viewBox="0 0 24 24" fill="none" stroke="currentColor" stroke-width="2" stroke-linecap="round" stroke-linejoin="round">
  <path d="M12 20a8 8 0 1 0 0-16 8 8 0 0 0 0 16z"/>
  <path d="M12 14a2 2 0 1 0 0-4 2 2 0 0 0 0 4z"/>
  <path d="M12 2v2"/>
  <path d="M12 20v2"/>
  <path d="m4.93 4.93 1.41 1.41"/>
  <path d="m17.66 17.66 1.41 1.41"/>
  <path d="M2 12h2"/>
  <path d="M20 12h2"/>
  <path d="m6.34 17.66-1.41 1.41"/>
  <path d="m19.07 4.93-1.41 1.41"/>
</svg>
