<?xml version="1.0" standalone="no"?><!DOCTYPE svg PUBLIC "-//W3C//DTD SVG 1.1//EN" "http://www.w3.org/Graphics/SVG/1.1/DTD/svg11.dtd"><svg t="1772467099268" class="icon" viewBox="0 0 1024 1024" version="1.1" xmlns="http://www.w3.org/2000/svg" p-id="21863" xmlns:xlink="http://www.w3.org/1999/xlink" width="200" height="200"><path fill="#9e8ef1" d="M410.5216 40.96C277.9648 40.96 169.9328 149.6064 169.9328 283.136c0 133.4784 107.8272 242.1248 240.5888 242.1248 132.7616 0 240.8448-108.6464 240.8448-242.1248 0-133.5296-108.0832-242.176-240.8448-242.176z m187.904 740.7104c-0.256 4.4544-0.4096 8.9088-0.4096 13.4144 0 15.2064 1.5872 30.2592 4.7616 45.1072a212.7872 212.7872 0 0 0 14.08 43.1616c6.1952 13.8752 13.7728 26.9824 22.6816 39.2704 8.96 12.288 19.0976 23.5008 30.4128 33.6896-47.0528 4.0448-102.144 4.0448-160.2048 4.0448H329.472c-169.7792 0-303.872 0-303.872-88.064v-18.1248c0-168.5504 136.2432-305.6128 303.872-305.6128h180.2752c16.7936 0 33.4848 1.4336 50.0736 4.1984 16.5376 2.816 32.768 6.9632 48.64 12.4928 7.936 2.7648 15.7696 5.8368 23.3984 9.216 7.6288 3.4304 15.1552 7.1168 22.528 11.1616a303.5136 303.5136 0 0 1 41.8816 27.7504c-7.5264 4.9152-14.6944 10.2912-21.5552 16.0768a213.61664 213.61664 0 0 0-36.3008 39.5264 209.98144 209.98144 0 0 0-14.2336 22.8352 214.54848 214.54848 0 0 0-19.5072 49.9712c-2.2016 8.704-3.8912 17.5616-4.9664 26.4704-0.5632 4.4544-0.9728 8.9088-1.28 13.4144z m225.4336-166.0416l-5.632-0.1024c-2.8672 0-5.7344 0.0512-8.6016 0.2048-2.9184 0.1536-5.7856 0.3584-8.6528 0.6144l-4.1984 0.4608-4.4032 0.6144a156.672 156.672 0 0 0-16.9984 3.328c-2.816 0.6656-5.5808 1.4336-8.3968 2.2528-1.3824 0.4096-2.7648 0.8192-4.096 1.28l-4.1472 1.3824c-2.7136 0.9728-5.4272 1.9968-8.0896 3.072-1.3312 0.512-2.6112 1.0752-3.9424 1.6384-1.3312 0.6144-2.6624 1.1776-3.9936 1.792-2.6112 1.2288-5.2224 2.5088-7.7824 3.84s-5.0688 2.7648-7.5776 4.1984a177.69472 177.69472 0 0 0-14.5408 9.472c-2.304 1.6896-4.608 3.4304-6.8608 5.2224-2.2528 1.792-4.5056 3.6864-6.656 5.5808-2.1504 1.8944-4.3008 3.8912-6.3488 5.9392a157.85984 157.85984 0 0 0-35.5328 54.0672 156.04736 156.04736 0 0 0-9.3696 39.8336 158.05952 158.05952 0 0 0 0 41.7792 156.04736 156.04736 0 0 0 9.3696 39.8336 157.85984 157.85984 0 0 0 35.5328 54.0672c2.048 2.048 4.1984 4.0448 6.3488 5.9392 2.1504 1.9456 4.4032 3.7888 6.656 5.5808 2.2528 1.792 4.5568 3.5328 6.8608 5.2224a158.72 158.72 0 0 0 29.7984 17.3568c2.6112 1.2288 5.2736 2.3552 7.936 3.4304 2.6624 1.024 5.376 1.9968 8.0896 2.8672a157.29664 157.29664 0 0 0 59.5968 8.2944 157.5936 157.5936 0 0 0 55.7568-15.9232 158.0544 158.0544 0 0 0 25.2928-15.4112c3.8912-2.9184 7.6288-6.0416 11.1616-9.3696 3.5328-3.328 6.912-6.8096 10.0864-10.4448 3.1744-3.6352 6.144-7.424 8.9088-11.3664a158.464 158.464 0 0 0 21.248-42.4448 156.6208 156.6208 0 0 0 5.632-23.4496 158.8224 158.8224 0 0 0 0-55.7056 156.6208 156.6208 0 0 0-5.632-23.4496 158.464 158.464 0 0 0-21.248-42.4448c-2.7648-3.9424-5.7344-7.7312-8.9088-11.3664-3.1744-3.6352-6.5536-7.1168-10.0864-10.4448-3.5328-3.328-7.2704-6.4512-11.1616-9.3696a158.0544 158.0544 0 0 0-25.2928-15.4112 157.5936 157.5936 0 0 0-55.7568-15.9232 158.65856 158.65856 0 0 0-45.5168 0.2048z m57.9584 135.5776a39.936 39.936 0 0 1 28.0064 11.5712 39.68 39.68 0 0 1 0 56.0128 39.936 39.936 0 0 1-56.0128 0 39.68 39.68 0 0 1 0-56.0128 39.936 39.936 0 0 1 28.0064-11.5712z" p-id="21864"></path></svg>
